# xmcd
#
# Track frame offsets: 
#        150
#        14803
#        33504
#        47887
#        57688
#        72207
#        88766
#        113273
#        130403
#        145230
#        169874
#
# Disc length: 2511 seconds
#
# Revision: 0
# Processed by: cddbd v1.5.2PL0 Copyright (c) Steve Scherf et al.
# Submitted via: ExactAudioCopyFreeDBPlugin 1.0
#
DISCID=a109cd0b
DTITLE=Gabriella Cohen - Pink is the colour of unconditional love
DYEAR=2018
DGENRE=No, thanks.
TTITLE0=Music machine
TTITLE1=Baby
TTITLE2=I feel so lonely
TTITLE3=Miserable baby
TTITLE4=Mercy
TTITLE5=Change
TTITLE6=Neil Young goes crazy
TTITLE7=Recognise my fate
TTITLE8=Morning light
TTITLE9=Hi fidelity
TTITLE10=Sky Rico
EXTD=
EXTT0=
EXTT1=
EXTT2=
EXTT3=
EXTT4=
EXTT5=
EXTT6=
EXTT7=
EXTT8=
EXTT9=
EXTT10=
PLAYORDER=
